<svg xmlns="http://www.w3.org/2000/svg" viewBox="0 0 320 320" width="320" height="320">
  
  <defs>
    <pattern id="shelf" x="0" y="0" width="320" height="320" patternUnits="userSpaceOnUse">
      <rect width="320" height="320" fill="#0C1929"></rect>
      
      <g fill="#1E3550">
        <rect x="6" y="10" width="14" height="86"></rect>
        <rect x="24" y="10" width="8" height="86"></rect>
        <rect x="36" y="10" width="20" height="86"></rect>
        <rect x="60" y="10" width="10" height="86"></rect>
        <rect x="74" y="10" width="6" height="86"></rect>
        <rect x="84" y="10" width="18" height="86"></rect>
        <rect x="106" y="10" width="12" height="86"></rect>
        <rect x="122" y="10" width="22" height="86"></rect>
        <rect x="148" y="10" width="8" height="86"></rect>
        <rect x="160" y="10" width="14" height="86"></rect>
        <rect x="178" y="10" width="20" height="86"></rect>
        <rect x="202" y="10" width="10" height="86"></rect>
        <rect x="216" y="10" width="16" height="86"></rect>
        <rect x="236" y="10" width="8" height="86"></rect>
        <rect x="248" y="10" width="22" height="86"></rect>
        <rect x="274" y="10" width="12" height="86"></rect>
        <rect x="290" y="10" width="20" height="86"></rect>
      </g>
      <g fill="#2A4566">
        <rect x="20" y="10" width="4" height="86"></rect>
        <rect x="56" y="10" width="4" height="86"></rect>
        <rect x="102" y="10" width="4" height="86"></rect>
        <rect x="144" y="10" width="4" height="86"></rect>
        <rect x="174" y="10" width="4" height="86"></rect>
        <rect x="232" y="10" width="4" height="86"></rect>
        <rect x="270" y="10" width="4" height="86"></rect>
      </g>
      
      <g fill="#1E3550">
        <rect x="10" y="118" width="60" height="12"></rect>
        <rect x="10" y="134" width="80" height="10"></rect>
        <rect x="10" y="148" width="40" height="14"></rect>
        <rect x="10" y="166" width="100" height="10"></rect>
        <rect x="120" y="118" width="120" height="14"></rect>
        <rect x="120" y="136" width="70" height="12"></rect>
        <rect x="120" y="152" width="90" height="10"></rect>
        <rect x="120" y="166" width="50" height="14"></rect>
        <rect x="250" y="118" width="56" height="12"></rect>
        <rect x="250" y="134" width="38" height="14"></rect>
        <rect x="250" y="152" width="60" height="10"></rect>
        <rect x="250" y="166" width="46" height="12"></rect>
      </g>
      
      <g fill="#1E3550">
        <rect x="2" y="190" width="18" height="100"></rect>
        <rect x="24" y="190" width="10" height="100"></rect>
        <rect x="38" y="190" width="6" height="100"></rect>
        <rect x="48" y="190" width="14" height="100"></rect>
        <rect x="66" y="190" width="20" height="100"></rect>
        <rect x="90" y="190" width="8" height="100"></rect>
        <rect x="102" y="190" width="16" height="100"></rect>
        <rect x="122" y="190" width="22" height="100"></rect>
        <rect x="148" y="190" width="10" height="100"></rect>
        <rect x="162" y="190" width="6" height="100"></rect>
        <rect x="172" y="190" width="18" height="100"></rect>
        <rect x="194" y="190" width="14" height="100"></rect>
        <rect x="212" y="190" width="22" height="100"></rect>
        <rect x="238" y="190" width="8" height="100"></rect>
        <rect x="250" y="190" width="20" height="100"></rect>
        <rect x="274" y="190" width="10" height="100"></rect>
        <rect x="288" y="190" width="24" height="100"></rect>
      </g>
      <g fill="#2A4566">
        <rect x="20" y="190" width="4" height="100"></rect>
        <rect x="62" y="190" width="4" height="100"></rect>
        <rect x="118" y="190" width="4" height="100"></rect>
        <rect x="190" y="190" width="4" height="100"></rect>
        <rect x="234" y="190" width="4" height="100"></rect>
        <rect x="284" y="190" width="4" height="100"></rect>
      </g>
    </pattern>
  </defs>
  <rect width="320" height="320" fill="url(#shelf)"></rect>
</svg>